<svg width="307" height="92" viewBox="0 0 307 92" fill="none" xmlns="http://www.w3.org/2000/svg">
<g clip-path="url(#clip0_2011_198)">
<path d="M287.528 0C286.137 0 284.803 0.55519 283.82 1.54344C282.836 2.53168 282.284 3.87203 282.284 5.26962V21.1076L287.528 15.838H292.766C294.157 15.838 295.491 15.2828 296.474 14.2945C297.458 13.3063 298.01 11.9659 298.01 10.5684V0H287.528ZM292.766 10.532H287.528V5.26962H292.766V10.532Z" fill="#27AA27"/>
<path d="M265.072 24.7977V22.4031L265.55 22.3521H266.006C266.734 22.3245 267.455 22.5118 268.078 22.8907C268.368 23.113 268.595 23.4067 268.739 23.7434C268.882 24.0801 268.937 24.4482 268.897 24.8123V37.8043H266.166C265.724 37.8043 265.441 37.6806 265.333 37.4404C265.19 37.1099 265.121 36.7523 265.13 36.3923V36.0866C264.9 36.3273 264.659 36.5557 264.405 36.7708C264.1 37.0214 263.773 37.2431 263.427 37.4331C263.032 37.6575 262.608 37.8265 262.167 37.9354C261.64 38.0727 261.096 38.1388 260.552 38.1319C259.747 38.187 258.94 38.063 258.189 37.7686C257.438 37.4742 256.76 37.0166 256.205 36.4287C255.174 35.1247 254.658 33.4841 254.756 31.8214V22.4031L255.227 22.3521H255.684C256.412 22.3237 257.132 22.511 257.755 22.8907C258.045 23.113 258.273 23.4067 258.416 23.7434C258.559 24.0801 258.614 24.4482 258.574 24.8123V31.7923C258.548 32.2041 258.605 32.617 258.742 33.006C258.879 33.395 259.093 33.7522 259.371 34.0559C259.642 34.3229 259.964 34.5317 260.317 34.6693C260.671 34.807 261.049 34.8707 261.428 34.8566C261.923 34.8581 262.412 34.7546 262.864 34.5526C263.316 34.3506 263.72 34.0549 264.05 33.6847C264.381 33.3061 264.639 32.8693 264.811 32.3964C264.997 31.8909 265.09 31.3558 265.086 30.817L265.072 24.7977ZM250.685 36.8509C249.896 37.295 249.06 37.6513 248.193 37.9135C247.264 38.1883 246.3 38.3256 245.332 38.3211C243.855 38.3387 242.39 38.059 241.022 37.4986C239.753 36.9769 238.606 36.1962 237.653 35.2059C236.706 34.2082 235.968 33.0302 235.48 31.7414C234.941 30.35 234.673 28.8674 234.691 27.3743C234.675 25.8814 234.943 24.3993 235.48 23.0072C236.25 20.9758 237.622 19.2312 239.412 18.0099C241.201 16.7887 243.321 16.1498 245.484 16.18C246.439 16.1695 247.391 16.282 248.317 16.5148C249.128 16.7356 249.909 17.0559 250.642 17.4683C251.327 17.8271 251.958 18.2803 252.518 18.8148C252.735 19.0331 253.04 19.3534 253.148 19.4917C253.271 19.6554 253.369 19.837 253.438 20.0303C253.51 20.2283 253.525 20.4427 253.481 20.649C253.403 21.005 253.209 21.3249 252.931 21.5588C252.328 22.0594 251.689 22.5143 251.019 22.9198C250.408 22.0588 249.644 21.3185 248.766 20.7363C247.772 20.1235 246.62 19.8196 245.455 19.8629C244.507 19.8464 243.569 20.0559 242.717 20.4743C241.922 20.8653 241.216 21.418 240.645 22.0974C240.062 22.796 239.619 23.6018 239.341 24.4702C239.035 25.3923 238.881 26.3585 238.885 27.3306C238.877 28.2887 239.032 29.2412 239.341 30.1474C239.617 30.987 240.055 31.7637 240.631 32.4328C241.187 33.0767 241.87 33.5972 242.637 33.9613C243.46 34.3476 244.359 34.5393 245.267 34.5217C246.041 34.5378 246.813 34.4348 247.556 34.2161C248.609 33.882 249.554 33.2714 250.294 32.4474C250.591 32.1053 250.866 31.8069 251.113 31.5521C251.704 31.9509 252.273 32.3835 252.815 32.8477C252.955 32.9762 253.088 33.1122 253.213 33.2553C253.323 33.3685 253.404 33.5055 253.452 33.6556C253.495 33.8252 253.495 34.0028 253.452 34.1724C253.402 34.3599 253.329 34.5407 253.235 34.711C253.135 34.8713 253.021 35.0223 252.895 35.1623C252.224 35.8164 251.474 36.3837 250.664 36.8509H250.685ZM232.554 22.2939C232.279 22.2618 232.004 22.2448 231.728 22.243C231.164 22.2355 230.602 22.314 230.062 22.4759C229.615 22.6108 229.185 22.7964 228.779 23.029C228.436 23.2338 228.118 23.4781 227.831 23.7569C227.594 23.9855 227.371 24.2286 227.164 24.4847C227.161 24.3114 227.144 24.1386 227.113 23.968C227.062 23.7349 226.96 23.5162 226.815 23.3274C226.67 23.1386 226.485 22.9845 226.273 22.8762C225.783 22.6307 225.241 22.5083 224.694 22.5195H224.151L223.839 22.5632L223.491 22.6214V37.8043H227.316V29.5651C227.309 29.0397 227.413 28.5188 227.62 28.0366C227.821 27.5979 228.101 27.2005 228.446 26.8648C228.805 26.5424 229.223 26.295 229.678 26.1369C230.156 25.9625 230.661 25.8738 231.17 25.8749C231.49 25.8714 231.81 25.8933 232.126 25.9404C232.398 25.9831 232.663 26.0589 232.916 26.1661C233.046 25.8822 233.481 24.6376 233.604 24.2373C233.71 23.8886 233.754 23.524 233.734 23.16C233.727 22.9903 233.666 22.8273 233.561 22.6942C233.449 22.574 233.313 22.4796 233.162 22.4176C232.993 22.3599 232.818 22.3232 232.641 22.3085L232.554 22.2939ZM193.538 33.6265C194.458 34.5202 195.691 35.0143 196.971 35.0021C197.61 35.012 198.242 34.8724 198.818 34.5945C199.344 34.3348 199.812 33.9708 200.195 33.5246C200.569 33.0819 200.859 32.5736 201.05 32.0252C201.244 31.4587 201.342 30.8632 201.339 30.2638C201.346 29.6508 201.275 29.0394 201.129 28.4442C201.004 27.9171 200.772 27.4216 200.448 26.9885C200.129 26.5409 199.703 26.1806 199.21 25.9404C198.63 25.6763 197.998 25.5493 197.362 25.5692C196.811 25.5607 196.267 25.6881 195.776 25.9404C195.319 26.189 194.915 26.5253 194.588 26.9303C194.258 27.3092 193.996 27.7426 193.813 28.2113C193.638 28.6415 193.545 29.1006 193.538 29.5651V33.6265ZM189.749 22.6069L190.089 22.5486L190.488 22.505H191.031C191.581 22.494 192.125 22.6163 192.618 22.8616C192.828 22.9712 193.013 23.1256 193.158 23.3142C193.303 23.5028 193.405 23.7209 193.458 23.9534C193.48 24.0662 193.495 24.1806 193.501 24.2955C193.736 24.0316 193.993 23.7881 194.269 23.5676C194.587 23.3081 194.935 23.0881 195.305 22.9126C195.74 22.7072 196.194 22.5439 196.66 22.4249C197.217 22.2883 197.789 22.2222 198.362 22.2284C199.359 22.1974 200.349 22.4105 201.246 22.8492C202.144 23.2879 202.921 23.9391 203.512 24.7467C204.084 25.5112 204.512 26.3747 204.773 27.2942C205.055 28.2561 205.196 29.2539 205.193 30.2566C205.221 31.3018 205.046 32.3426 204.679 33.3208C204.357 34.1094 203.92 34.8453 203.382 35.5043C202.636 36.46 201.662 37.211 200.55 37.6879C199.546 38.0968 198.474 38.3069 197.391 38.3066C196.013 38.278 194.674 37.8453 193.538 37.0619V42.3607C193.366 42.415 193.188 42.4444 193.009 42.448C192.748 42.448 192.458 42.448 192.147 42.448C191.84 42.4481 191.533 42.414 191.234 42.3461C190.955 42.2866 190.695 42.1619 190.473 41.9822C190.236 41.7909 190.053 41.5398 189.944 41.2543C189.802 40.8885 189.735 40.4971 189.749 40.1043V22.6069ZM272.707 22.5632V19.4553C272.694 19.1112 272.771 18.7697 272.932 18.4654C273.075 18.2167 273.28 18.0088 273.526 17.8613C273.775 17.7139 274.051 17.6151 274.337 17.5702C274.645 17.5091 274.958 17.475 275.271 17.4683H275.72L276.148 17.5047L276.568 17.5556V22.5632H280.856L277.749 25.6857H276.568V32.3528C276.527 33.0474 276.677 33.74 277.003 34.3543C277.178 34.6129 277.421 34.8177 277.705 34.9461C277.988 35.0746 278.302 35.1217 278.611 35.0822C278.875 35.0839 279.138 35.037 279.386 34.9439C279.617 34.864 279.841 34.7616 280.052 34.6382C280.234 34.5371 280.406 34.4202 280.567 34.2888C280.712 34.1651 280.813 34.0705 280.871 34.0123C281.122 34.3856 281.35 34.7746 281.552 35.1768C281.698 35.4657 281.778 35.7843 281.784 36.1085C281.776 36.3981 281.669 36.6761 281.479 36.8945C281.236 37.1881 280.941 37.4347 280.61 37.6224C280.185 37.8601 279.729 38.0365 279.256 38.1464C278.688 38.2949 278.103 38.3635 277.517 38.3502C276.803 38.3481 276.095 38.2123 275.431 37.9499C274.798 37.6903 274.243 37.2687 273.823 36.7271C273.41 36.2004 273.119 35.5892 272.968 34.9366C272.788 34.1737 272.7 33.3916 272.707 32.6075V25.6638H270.121V22.5632H272.707ZM183.932 32.3964C183.933 32.7862 183.828 33.1689 183.628 33.5028C183.419 33.8538 183.149 34.1644 182.831 34.4199C182.132 34.9739 181.266 35.2717 180.375 35.2642C179.647 35.3175 178.922 35.1226 178.318 34.711C178.085 34.5326 177.897 34.3008 177.771 34.035C177.645 33.7691 177.584 33.4768 177.594 33.1825C177.594 32.8674 177.658 32.5557 177.782 32.2665C177.907 31.9773 178.089 31.7169 178.318 31.5012C179.059 30.9374 179.986 30.6773 180.911 30.7733H181.773L182.729 30.8243L183.86 30.8898L183.932 32.3964ZM176.398 22.9344C176.001 23.1158 175.636 23.3617 175.319 23.6623C175.209 23.7492 175.119 23.8596 175.057 23.9854C174.994 24.1112 174.96 24.2494 174.957 24.3901C175.006 24.6674 175.104 24.9336 175.246 25.1762C175.54 25.696 175.914 26.1654 176.355 26.5664C176.899 26.211 177.474 25.9041 178.072 25.6493C178.898 25.3386 179.776 25.1951 180.658 25.2271C181.496 25.1883 182.326 25.4177 183.026 25.8822C183.314 26.0779 183.547 26.3432 183.706 26.6536C183.864 26.964 183.942 27.3095 183.932 27.6581V28.0148L182.737 27.9493L181.665 27.8983H180.658C179.74 27.8871 178.825 28.0072 177.941 28.255C177.177 28.4663 176.461 28.8248 175.833 29.3104C175.258 29.7769 174.793 30.3661 174.471 31.0354C174.14 31.7662 173.975 32.5616 173.986 33.3645C173.974 34.119 174.135 34.8662 174.457 35.548C174.746 36.1493 175.167 36.6768 175.688 37.0911C176.189 37.4941 176.762 37.7979 177.376 37.9863C177.978 38.1821 178.606 38.2828 179.238 38.2847C180.209 38.298 181.171 38.0967 182.056 37.6952C182.768 37.4038 183.409 36.9591 183.932 36.3923C183.914 36.7573 183.973 37.1219 184.106 37.4623C184.222 37.7024 184.497 37.8262 184.939 37.8262H187.619V27.549C187.625 26.7833 187.472 26.0247 187.17 25.3217C186.872 24.6483 186.429 24.0493 185.873 23.5676C185.279 23.0563 184.589 22.668 183.845 22.4249C182.994 22.1439 182.104 22.0062 181.208 22.0173C180.41 22.0075 179.613 22.0684 178.825 22.1993C178.559 22.2392 178.296 22.2927 178.035 22.3594C177.483 22.4994 176.945 22.6894 176.427 22.9271L176.398 22.9344ZM173.479 21.8936C173.222 20.9961 172.78 20.1628 172.182 19.448C171.481 18.6289 170.611 17.9732 169.632 17.5265C168.321 16.9516 166.897 16.6828 165.467 16.7404H161.541C161.24 16.7393 160.939 16.7637 160.643 16.8132C160.356 16.8549 160.08 16.9539 159.831 17.1043C159.587 17.251 159.383 17.4561 159.237 17.7012C159.074 18.0072 158.997 18.3517 159.013 18.6983V37.8043H162.99V31.9816H165.793C166.761 31.9775 167.722 31.8303 168.647 31.5449C169.594 31.2646 170.477 30.8023 171.248 30.1838C172.041 29.5427 172.682 28.7321 173.124 27.811C173.634 26.722 173.882 25.5277 173.848 24.3246C173.834 23.5138 173.712 22.7085 173.486 21.93L173.479 21.8936ZM168.495 27.4034C168.087 27.7874 167.606 28.0851 167.08 28.2789C166.555 28.4727 165.997 28.5586 165.438 28.5316H162.99V20.1759H165.438C165.998 20.1573 166.555 20.2551 167.075 20.463C167.595 20.671 168.067 20.9847 168.461 21.3845C168.854 21.7843 169.162 22.2615 169.363 22.7862C169.565 23.3109 169.657 23.8718 169.632 24.4338C169.652 24.9715 169.561 25.5074 169.365 26.0083C169.169 26.5091 168.873 26.9642 168.495 27.3452V27.4034ZM283.53 36.2831H282.993V36.0284H284.334V36.2831H283.798V37.7825H283.53V36.2831ZM285.869 36.6543L285.514 37.5642H285.174L284.804 36.5888V37.7825H284.522V36.0502H284.855L285.348 37.3822L285.848 36.0502H286.137V37.8043H285.855L285.869 36.6543ZM219.29 33.2262C219.733 33.6397 220.152 34.0797 220.543 34.5436C220.646 34.663 220.74 34.7895 220.826 34.9221C220.897 35.0337 220.948 35.1568 220.978 35.286C221 35.43 220.988 35.5773 220.942 35.7154C220.879 35.8668 220.796 36.0088 220.695 36.1376C220.596 36.2628 220.484 36.3774 220.362 36.4797C219.506 37.1591 218.519 37.6546 217.464 37.9354C216.47 38.2169 215.44 38.3493 214.407 38.3284C213.276 38.3446 212.153 38.1343 211.104 37.7097C210.147 37.3237 209.281 36.7411 208.562 35.9993C207.843 35.2535 207.29 34.3628 206.939 33.3863C206.552 32.3008 206.361 31.1547 206.374 30.0018C206.364 28.9274 206.556 27.8607 206.939 26.8575C207.299 25.9222 207.838 25.0667 208.525 24.3392C209.215 23.615 210.043 23.0382 210.959 22.6433C211.946 22.2229 213.009 22.0123 214.081 22.0246C215.297 21.9867 216.504 22.2491 217.595 22.7888C218.514 23.262 219.309 23.9481 219.913 24.7904C220.504 25.6368 220.932 26.5874 221.173 27.5926C221.434 28.635 221.566 29.7058 221.564 30.7806V31.2974H210.184C210.176 31.831 210.306 32.3575 210.561 32.8259C210.797 33.2884 211.125 33.6972 211.524 34.0268C211.929 34.3483 212.388 34.5948 212.879 34.7547C213.363 34.9251 213.872 35.0136 214.386 35.0167C215.539 35.0325 216.682 34.7835 217.725 34.2888C218.066 34.1343 218.387 33.9388 218.681 33.7066C218.928 33.5028 219.116 33.3354 219.246 33.2043L219.29 33.2262ZM217.595 28.517C217.59 28.116 217.514 27.7191 217.37 27.3452C217.217 26.9538 216.991 26.5956 216.704 26.2898C216.388 25.956 216.008 25.6887 215.588 25.5037C215.096 25.2923 214.566 25.1881 214.031 25.198C213.461 25.1878 212.894 25.2917 212.365 25.5037C211.914 25.6883 211.502 25.9548 211.148 26.2898C210.842 26.5925 210.596 26.9506 210.423 27.3452C210.26 27.7143 210.174 28.1131 210.17 28.517H217.595Z" fill="white"/>
<path d="M124.061 62.7258H142.932V84.6268C140.538 86.8019 137.788 88.5452 134.804 89.7799C131.423 91.2356 127.106 91.9756 121.852 91.9999C117.885 92.0702 113.944 91.3426 110.261 89.86C107.015 88.5332 104.073 86.5514 101.619 84.0372C99.2295 81.5462 97.3753 78.5881 96.1716 75.3467C94.8841 71.899 94.2406 68.2422 94.2737 64.56C94.2473 60.845 94.9183 57.1584 96.2513 53.6932C97.5092 50.3937 99.3994 47.3743 101.815 44.8062C104.334 42.1517 107.371 40.0484 110.737 38.6281C114.102 37.2079 117.723 36.5012 121.373 36.5524C123.768 36.5326 126.155 36.8138 128.48 37.3894C130.524 37.9024 132.499 38.6625 134.362 39.653C136.078 40.5583 137.666 41.6891 139.085 43.0157C140.422 44.2837 141.635 45.6779 142.707 47.179L135.68 53.4458C134.107 51.1288 132.108 49.1352 129.791 47.572C127.266 46.0262 124.342 45.2663 121.388 45.3885C118.991 45.339 116.616 45.8577 114.455 46.9024C112.44 47.8987 110.652 49.3038 109.204 51.0293C107.722 52.8047 106.595 54.851 105.886 57.0559C105.115 59.404 104.729 61.862 104.741 64.3344C104.698 66.9674 105.168 69.5835 106.125 72.035C106.985 74.2134 108.265 76.1996 109.892 77.8796C111.482 79.5112 113.391 80.7949 115.499 81.6499C117.642 82.5257 119.936 82.9708 122.25 82.96C127.079 82.96 130.815 81.7954 133.456 79.4663V71.2125H124.039L124.061 62.7258Z" fill="white"/>
<path d="M150.509 53.5259H159.433L159.672 58.2059C160.171 57.5878 160.711 57.0042 161.288 56.4591C161.996 55.7883 162.778 55.2022 163.62 54.7122C164.605 54.1472 165.65 53.6955 166.735 53.3657C168.057 52.9769 169.429 52.7904 170.806 52.8126C171.611 52.8053 172.415 52.8589 173.211 52.9727C173.952 53.0848 174.68 53.2701 175.385 53.5259L173.487 62.3328C172.866 62.0712 172.217 61.8854 171.552 61.7796C170.783 61.6636 170.005 61.6101 169.227 61.6195C167.992 61.6165 166.766 61.8308 165.605 62.2527C164.489 62.638 163.463 63.2499 162.592 64.0505C161.702 64.8887 160.998 65.9045 160.522 67.0326C160.047 68.1607 159.812 69.3763 159.832 70.6012V90.6752H150.509V53.5259Z" fill="white"/>
<path d="M176.174 72.0571C176.157 69.4368 176.649 66.8384 177.623 64.4074C178.56 62.0588 179.943 59.9157 181.694 58.097C183.486 56.2796 185.621 54.8395 187.974 53.8609C193.164 51.7358 198.975 51.7358 204.165 53.8609C206.505 54.8417 208.626 56.2843 210.401 58.1034C212.177 59.9224 213.571 62.0809 214.502 64.4511C216.447 69.3586 216.447 74.8284 214.502 79.7359C213.565 82.0937 212.185 84.2485 210.438 86.0827C208.661 87.9376 206.527 89.4087 204.165 90.4061C198.973 92.5219 193.166 92.5219 187.974 90.4061C185.612 89.4087 183.478 87.9376 181.701 86.0827C179.954 84.2469 178.572 82.0927 177.63 79.7359C176.651 77.2962 176.156 74.6876 176.174 72.0571ZM196.066 83.8846C197.686 83.9224 199.29 83.5521 200.731 82.8074C202.014 82.1197 203.131 81.1583 204.005 79.9906C204.867 78.8455 205.522 77.557 205.939 76.184C206.353 74.8477 206.566 73.4566 206.57 72.0571C206.559 70.6724 206.347 69.2966 205.939 67.9739C205.531 66.5971 204.875 65.307 204.005 64.1672C203.12 63.0201 202.004 62.0728 200.731 61.3868C199.277 60.6826 197.684 60.3169 196.069 60.3169C194.455 60.3169 192.862 60.6826 191.408 61.3868C190.135 62.0728 189.019 63.0201 188.134 64.1672C187.25 65.3136 186.584 66.6139 186.171 68.003C185.763 69.3257 185.55 70.7015 185.54 72.0862C185.544 73.4857 185.756 74.8768 186.171 76.2131C186.588 77.5861 187.243 78.8746 188.105 80.0197C188.979 81.1874 190.096 82.1488 191.379 82.8365C192.826 83.586 194.438 83.9565 196.066 83.9137V83.8846Z" fill="white"/>
<path d="M216.595 53.5259H226.859L233.98 79.3863L241.796 53.5259H249.613L257.509 79.3863L264.535 53.5259H274.329L261.775 90.7335H252.757L245.179 68.2794L237.834 90.7335H229.141L216.595 53.5259Z" fill="white"/>
<path d="M280.633 80.0999C281.894 81.3441 283.382 82.3326 285.015 83.0113C286.926 83.8097 288.981 84.2012 291.049 84.1613C292.692 84.2259 294.331 83.956 295.867 83.3679C296.407 83.1837 296.875 82.8308 297.202 82.3609C297.529 81.8909 297.698 81.3283 297.685 80.755C297.686 80.2521 297.578 79.7551 297.366 79.2993C297.052 78.7437 296.587 78.2894 296.026 77.9891C295.126 77.4683 294.174 77.0438 293.186 76.7227C291.578 76.1895 289.943 75.7377 288.289 75.3689C286.948 75.0305 285.63 74.6075 284.341 74.1024C282.965 73.5662 281.674 72.8306 280.509 71.9189C279.341 71.0031 278.358 69.8717 277.612 68.5854C276.82 67.1724 276.424 65.57 276.467 63.949C276.426 62.1926 276.883 60.4607 277.786 58.9559C278.687 57.5064 279.885 56.2659 281.299 55.3167C282.805 54.3135 284.457 53.5522 286.196 53.0604C287.979 52.5327 289.828 52.2631 291.687 52.2597C294.499 52.2038 297.304 52.5518 300.017 53.2933C302.245 53.9552 304.341 55.0019 306.211 56.3866L301.394 62.9736C300.177 62.1194 298.848 61.4385 297.446 60.9502C295.594 60.3092 293.645 60.0013 291.687 60.0404C289.48 60.0404 287.939 60.3704 287.065 61.0303C286.669 61.2968 286.344 61.656 286.117 62.0769C285.889 62.4979 285.768 62.968 285.761 63.4467C285.761 64.6113 286.486 65.5284 287.935 66.1835C290.119 67.0842 292.378 67.7881 294.686 68.2869C296.42 68.6628 298.117 69.1938 299.757 69.8736C301.166 70.4511 302.472 71.2549 303.625 72.2537C304.685 73.1846 305.532 74.334 306.11 75.6236C306.722 77.0927 307.018 78.6752 306.979 80.2673C307.003 81.9771 306.567 83.6617 305.718 85.1439C304.861 86.6148 303.688 87.8753 302.285 88.8341C300.731 89.8846 299.019 90.676 297.214 91.1777C295.222 91.7407 293.162 92.02 291.093 92.0075C287.895 92.0564 284.711 91.5643 281.676 90.5518C279.102 89.7032 276.79 88.1986 274.968 86.1847L280.633 80.0999Z" fill="white"/>
<path d="M35.5682 59.1013H18.907C15.3541 59.1755 11.9255 60.4296 9.15661 62.6678C3.61496 67.1804 2.63703 73.7383 1.48523 81.3371C1.06508 83.9937 0.673907 86.7523 0.0436802 89.5254C-0.0104001 89.7562 -0.0113016 89.9964 0.0410444 90.2277C0.0933903 90.4589 0.197601 90.6751 0.345731 90.8598C0.493861 91.0444 0.681998 91.1926 0.895796 91.2931C1.10959 91.3936 1.34341 91.4437 1.5794 91.4396C5.74469 91.3523 9.8955 91.8472 14.0535 91.9782C20.7904 92.1966 28.0127 91.1048 32.3156 85.333C34.4105 82.5075 35.548 79.0813 35.5609 75.558L35.5682 59.1013Z" fill="#33C2AF"/>
<path d="M44.9131 59.043H61.5742C65.1326 59.1099 68.5689 60.3589 71.3463 62.5949C76.888 67.1148 77.8659 73.6727 79.0177 81.2642C79.4379 83.9281 79.8291 86.6794 80.4665 89.4525C80.5193 89.6838 80.519 89.9241 80.4657 90.1553C80.4123 90.3865 80.3074 90.6025 80.1587 90.7869C80.0101 90.9713 79.8216 91.1194 79.6076 91.2198C79.3936 91.3203 79.1597 91.3705 78.9235 91.3667C74.7583 91.2794 70.6147 91.7743 66.4567 91.9053C59.7198 92.1237 52.4975 91.0319 48.1873 85.2601C46.0877 82.438 44.9405 79.0157 44.9131 75.4923V59.043Z" fill="#27AA27"/>
<path d="M35.568 49.6464H18.9068C15.3632 49.5774 11.9421 48.3309 9.17815 46.1018C3.62201 41.56 2.62234 35.0021 1.48504 27.4106C1.06488 24.7467 0.67371 21.9954 0.0434833 19.2223C-0.0127108 18.9919 -0.0144636 18.7514 0.0383649 18.5201C0.0911934 18.2888 0.197138 18.0732 0.347731 17.8904C0.494657 17.7048 0.68219 17.5557 0.895765 17.4547C1.10934 17.3537 1.34321 17.3035 1.57921 17.3081C5.7445 17.3954 9.8953 16.9005 14.0533 16.7695C20.7903 16.5511 28.0125 17.6429 32.3154 23.4148C34.4113 26.2425 35.5489 29.6713 35.5607 33.197L35.568 49.6464Z" fill="#27AA27"/>
<path d="M44.9131 49.6974H61.5742C65.1202 49.6225 68.5424 48.374 71.3101 46.1455C76.8518 41.6329 77.8297 35.075 78.9815 27.4762C79.4017 24.8196 79.7928 22.061 80.4303 19.2952C80.4854 19.0635 80.4866 18.8222 80.4339 18.5899C80.3811 18.3576 80.2758 18.1407 80.1261 17.956C79.9766 17.7714 79.7875 17.6232 79.573 17.5224C79.3585 17.4216 79.1241 17.3707 78.8873 17.3737C74.722 17.4683 70.5785 16.9734 66.4204 16.8424C59.6835 16.624 52.4613 17.7085 48.1511 23.4876C46.0645 26.3114 44.93 29.7311 44.9131 33.2481V49.6974Z" fill="#8EC741"/>
</g>
<defs>
<clipPath id="clip0_2011_198">
<rect width="307" height="92" fill="white"/>
</clipPath>
</defs>
</svg>
